<svg width="33" height="34" viewBox="0 0 33 34" fill="none" xmlns="http://www.w3.org/2000/svg">
<path d="M27.5421 10.9358L20.3234 3.49828C20.2275 3.39965 20.1138 3.32143 19.9886 3.26811C19.8634 3.21478 19.7292 3.18739 19.5938 3.1875H7.21875C6.67174 3.1875 6.14714 3.41138 5.76034 3.8099C5.37355 4.20841 5.15625 4.74892 5.15625 5.3125V28.6875C5.15625 29.2511 5.37355 29.7916 5.76034 30.1901C6.14714 30.5886 6.67174 30.8125 7.21875 30.8125H25.7812C26.3283 30.8125 26.8529 30.5886 27.2397 30.1901C27.6265 29.7916 27.8438 29.2511 27.8438 28.6875V11.6875C27.8439 11.5479 27.8173 11.4097 27.7655 11.2807C27.7138 11.1517 27.6378 11.0345 27.5421 10.9358ZM20.625 23.375H12.375C12.1015 23.375 11.8392 23.2631 11.6458 23.0638C11.4524 22.8645 11.3438 22.5943 11.3438 22.3125C11.3438 22.0307 11.4524 21.7605 11.6458 21.5612C11.8392 21.3619 12.1015 21.25 12.375 21.25H20.625C20.8985 21.25 21.1608 21.3619 21.3542 21.5612C21.5476 21.7605 21.6562 22.0307 21.6562 22.3125C21.6562 22.5943 21.5476 22.8645 21.3542 23.0638C21.1608 23.2631 20.8985 23.375 20.625 23.375ZM20.625 19.125H12.375C12.1015 19.125 11.8392 19.0131 11.6458 18.8138C11.4524 18.6145 11.3438 18.3443 11.3438 18.0625C11.3438 17.7807 11.4524 17.5105 11.6458 17.3112C11.8392 17.1119 12.1015 17 12.375 17H20.625C20.8985 17 21.1608 17.1119 21.3542 17.3112C21.5476 17.5105 21.6562 17.7807 21.6562 18.0625C21.6562 18.3443 21.5476 18.6145 21.3542 18.8138C21.1608 19.0131 20.8985 19.125 20.625 19.125ZM19.5938 11.6875V5.84375L25.2656 11.6875H19.5938Z" fill="#94A3B8"/>
</svg>
